#N canvas 192 194 1450 704 10;
#X declare -path rj;
#X declare -path .;
#X declare -path rj;
#X declare -path .;
#X declare -path rj;
#X declare -path .;
#X declare -path rj;
#X declare -path .;
#X declare -path rj;
#X obj 26 56 loadbang;
#X obj 26 98 soundfiler;
#X obj 26 12 declare -path rj;
#X obj 1132 313 s_loopsmooth almglocken;
#X obj 828 55 tgl 15 0 empty empty empty 17 7 0 10 -262144 -1 -1 0
1;
#X obj 26 33 table almglocken;
#X msg 26 77 read -resize ./samples/almglockenC.wav almglocken;
#X msg 1308 291 table almglocken;
#X obj 1079 144 random 30;
#X obj 1079 164 + 25;
#X obj 969 145 random 40;
#X obj 969 166 + 10;
#X obj 1220 143 random 100;
#X obj 1220 164 + 1;
#X obj 1308 271 loadbang;
#X obj 1223 36 loadbang;
#X obj 1164 36 select 0;
#X obj 273 318 g_vol2;
#X obj 347 324 loadbang;
#X msg 347 346 95;
#X obj 387 15 notein;
#N canvas 1121 64 488 330 note_distribute 0;
#X obj 89 26 inlet;
#X obj 153 27 inlet;
#X obj 45 258 outlet;
#X obj 103 50 pack f f;
#X obj 103 85 stripnote;
#X obj 127 257 outlet;
#X obj 244 260 outlet;
#X obj 313 257 outlet;
#X obj 248 106 + 1;
#X floatatom 195 130 5 0 0 0 - - -;
#X msg 245 152 set \$1;
#X obj 245 129 % 4;
#X obj 195 102 t b;
#X obj 84 210 route 0 1 2 3;
#X obj 98 145 pack f f;
#X obj 123 180 list prepend;
#N canvas 326 601 450 300 sel01 0;
#X obj 122 3 inlet;
#X obj 247 31 sel 0;
#X msg 225 58 0;
#X msg 275 57 1;
#X obj 49 133 spigot;
#X obj 240 5 inlet;
#X obj 47 203 outlet;
#X obj 165 105 tgl 15 0 empty empty empty 17 7 0 10 -262144 -1 -1 1
1;
#X connect 0 0 4 0;
#X connect 1 0 2 0;
#X connect 1 1 3 0;
#X connect 2 0 7 0;
#X connect 3 0 7 0;
#X connect 4 0 6 0;
#X connect 5 0 1 0;
#X connect 7 0 4 1;
#X coords 0 -1 1 1 85 25 1 100 100;
#X restore 231 48 pd sel01;
#X obj 331 23 inlet;
#X obj 340 91 loadbang;
#X msg 335 121 1;
#X connect 0 0 3 0;
#X connect 1 0 3 1;
#X connect 3 0 16 0;
#X connect 4 0 14 0;
#X connect 4 1 12 0;
#X connect 4 1 14 1;
#X connect 8 0 11 0;
#X connect 9 0 8 0;
#X connect 9 0 15 1;
#X connect 10 0 9 0;
#X connect 11 0 10 0;
#X connect 12 0 9 0;
#X connect 13 0 2 0;
#X connect 13 1 5 0;
#X connect 13 2 6 0;
#X connect 13 3 7 0;
#X connect 14 0 15 0;
#X connect 15 0 13 0;
#X connect 16 0 4 0;
#X connect 17 0 16 1;
#X connect 18 0 19 0;
#X connect 19 0 16 1;
#X restore 225 176 pd note_distribute;
#X obj 157 226 bellsynth;
#X obj 218 226 bellsynth;
#X obj 280 225 bellsynth;
#X obj 344 225 bellsynth;
#X obj 777 134 - 48;
#X obj 353 43 s pitch;
#X obj 403 43 s velocity;
#X obj 472 42 s channel;
#X obj 828 33 r sing;
#X obj 1171 344 r singlevel;
#X obj 208 150 r pitch;
#X obj 260 150 r velocity;
#X obj 1134 472 g_vol;
#X obj 1206 472 loadbang;
#X msg 1207 499 90;
#X obj 687 644 dac~;
#X obj 1135 438 *~;
#X obj 1171 390 / 100;
#X floatatom 804 212 5 0 0 0 - - -;
#X floatatom 1218 439 5 0 0 0 - - singvolume;
#X obj 777 112 r singpitch;
#N canvas 659 601 450 300 oscsinger 0;
#X obj 34 30 inlet;
#X obj 179 26 inlet;
#X obj 95 127 osc~;
#X obj 160 64 mtof;
#X obj 96 199 *~;
#X obj 178 143 loadbang;
#X msg 180 174 0;
#X obj 96 247 outlet~;
#X obj 96 222 hip~ 5;
#X msg 186 228 1;
#X obj 271 152 list append 100;
#X obj 271 181 line~;
#X connect 0 0 4 1;
#X connect 0 0 10 0;
#X connect 1 0 3 0;
#X connect 2 0 4 0;
#X connect 3 0 2 0;
#X connect 4 0 8 0;
#X connect 5 0 6 0;
#X connect 6 0 4 1;
#X connect 8 0 7 0;
#X connect 9 0 4 1;
#X connect 10 0 11 0;
#X connect 11 0 4 1;
#X restore 689 49 pd oscsinger;
#X obj 733 25 r singpitch;
#X obj 1171 438 line~;
#X obj 986 284 s loopset;
#X obj 1188 73 t b b b b;
#X obj 804 187 list prepend transposition;
#X obj 969 187 list prepend dur;
#X obj 1079 185 list prepend loopstart;
#X obj 1220 184 list prepend chunk-size;
#N canvas 44 341 893 337 test 0;
#X obj 69 27 bng 150 250 50 0 empty empty empty 17 7 0 10 -258113 -1
-1;
#X obj 71 187 random 128;
#X floatatom 70 208 5 0 0 0 - - -;
#X obj 139 188 random 128;
#X obj 163 212 / 1.28;
#X floatatom 207 212 5 0 0 0 - - -;
#X obj 207 235 s singlevel;
#X obj 70 237 s pitch;
#X obj 138 235 s velocity;
#X obj 69 3 r testbutton;
#X obj 45 267 s singpitch;
#X obj 315 26 tgl 150 0 sing empty empty 17 7 0 10 -4034 -1 -1 0 1
;
#X obj 513 27 bng 150 250 50 0 resetsing empty empty 17 7 0 10 -4160
-1 -1;
#X obj 730 28 vsl 50 150 0 1 0 0 distortlevel empty empty 0 -9 0 10
-260097 -1 -1 0 1;
#X obj 435 224 hsl 200 30 -1 1 0 0 sinPanAngle empty wobble -2 -8 0
10 -262144 -1 -1 10300 1;
#X msg 660 214 0.8;
#X obj 662 239 s panTranslation;
#X msg 697 214 1;
#X connect 0 0 1 0;
#X connect 0 0 3 0;
#X connect 1 0 2 0;
#X connect 2 0 7 0;
#X connect 2 0 10 0;
#X connect 3 0 4 0;
#X connect 3 0 8 0;
#X connect 4 0 5 0;
#X connect 5 0 6 0;
#X connect 9 0 0 0;
#X connect 15 0 16 0;
#X connect 17 0 16 0;
#X restore 297 15 pd test;
#X obj 1283 37 r resetsing;
#X obj 1171 366 moses 200;
#X msg 1211 389 200;
#N canvas 270 245 392 301 reverb 0;
#X obj 22 10 inlet~;
#X obj 18 263 outlet~;
#X obj 320 261 outlet~;
#X obj 100 95 loadbang;
#X obj 73 139 e_reverb \$0-reverbBus;
#X msg 100 116 amp 80 \, hall 85 \, freq 6000 \, damp 60 \, dry 0;
#X connect 0 0 4 0;
#X connect 3 0 5 0;
#X connect 4 0 1 0;
#X connect 4 1 2 0;
#X connect 5 0 4 1;
#X restore 484 405 pd reverb;
#X obj 1171 416 list append 50;
#X obj 854 114 r sinPanAngle;
#X obj 577 336 r panTranslation;
#X msg 1242 98 0;
#X obj 822 327 r distortlevel;
#X obj 821 136 t b;
#X obj 823 159 + 0;
#X obj 854 135 * 0.25;
#N canvas 0 57 805 425 crystal 0;
#X obj 82 67 e_pitchshift;
#X msg 151 45 pitch 12;
#X obj 194 11 loadbang;
#X obj 30 16 inlet~;
#X obj 27 391 outlet~;
#X obj 546 25 inlet;
#X obj 520 121 line~;
#X obj 546 47 t b f;
#X msg 519 87 0 500;
#X obj 583 85 list append 50;
#X obj 533 67 delay 50;
#X obj 26 304 e_reslop mylop 4720;
#X msg 184 284 q 1;
#X obj 28 334 e_reverb crystal;
#X obj 29 253 *~ 0.5;
#X msg 160 319 amp 100 \, dry 0.5 \, hall 90 \, freq 14400 \, damp
60;
#X obj 75 175 e_fbdelay crystaldel 500;
#X obj 34 42 *~;
#X msg 216 152 dry 0.5 \, feedback 0.15 \, delay 200;
#X obj 26 361 *~ 0.8;
#X connect 0 0 16 0;
#X connect 1 0 0 1;
#X connect 2 0 1 0;
#X connect 2 0 12 0;
#X connect 2 0 15 0;
#X connect 2 0 18 0;
#X connect 3 0 17 0;
#X connect 5 0 7 0;
#X connect 6 0 17 1;
#X connect 7 0 10 0;
#X connect 7 1 9 0;
#X connect 8 0 6 0;
#X connect 9 0 6 0;
#X connect 10 0 8 0;
#X connect 11 0 13 0;
#X connect 12 0 11 1;
#X connect 13 0 19 0;
#X connect 14 0 11 0;
#X connect 15 0 13 1;
#X connect 16 0 11 0;
#X connect 17 0 0 0;
#X connect 17 0 14 0;
#X connect 18 0 16 2;
#X connect 19 0 4 0;
#X restore 580 408 pd crystal;
#N canvas 653 118 502 438 random_pitch 0;
#X obj 16 402 outlet~;
#X obj 19 11 inlet~;
#X obj 419 7 inlet;
#X obj 30 55 *~;
#X obj 374 57 line~;
#X obj 27 206 e_fbdelay rand_del 200;
#X msg 154 137 pitch 3;
#X obj 155 89 loadbang;
#X msg 154 179 dry 0.5 \, feedback 0.15 \, delay 200;
#X obj 253 117 * -1;
#X obj 253 141 + 4;
#X obj 320 135 list prepend pitch;
#X obj 245 57 random 80;
#X obj 247 83 / 10;
#X obj 32 111 e_pitchshift;
#X obj 242 232 random 200;
#X obj 244 268 list prepend delay;
#X obj 282 23 t b b;
#X obj 50 313 *~ 0.8;
#X obj 375 32 list append 1000;
#X connect 1 0 3 0;
#X connect 2 0 17 0;
#X connect 2 0 19 0;
#X connect 3 0 14 0;
#X connect 4 0 3 1;
#X connect 5 0 18 0;
#X connect 6 0 14 1;
#X connect 7 0 6 0;
#X connect 7 0 8 0;
#X connect 8 0 5 2;
#X connect 9 0 10 0;
#X connect 10 0 11 0;
#X connect 11 0 14 1;
#X connect 12 0 13 0;
#X connect 13 0 9 0;
#X connect 14 0 5 0;
#X connect 15 0 16 0;
#X connect 16 0 5 2;
#X connect 17 0 12 0;
#X connect 17 1 15 0;
#X connect 18 0 0 0;
#X connect 19 0 4 0;
#X restore 715 407 pd random_pitch;
#X obj 659 575 e_softclip left;
#X obj 689 554 e_softclip right;
#X obj 659 484 g_vol2;
#X obj 741 484 loadbang;
#X msg 742 509 98;
#X obj 41 445 loadbang;
#X obj 38 614 soundfiler;
#X obj 41 472 t b b b b b b;
#X msg 56 495 read -resize ./samples/bowl.wav bowl;
#X msg 66 516 read -resize ./samples/crotale.wav crotale;
#X msg 78 538 read -resize ./samples/gong.wav gong;
#X msg 87 560 read -resize ./samples/marimba.wav marimba;
#X msg 97 582 read -resize ./samples/xylo.wav xylo;
#X obj 28 393 table bowl;
#X obj 59 404 table crotale;
#X obj 51 390 table gong;
#X obj 38 414 table marimba;
#X obj 34 402 table xylo;
#X msg 392 532 crotale 1058.39;
#X msg 392 554 gong 179.88;
#X msg 392 576 marimba 264;
#X msg 392 618 bowl 705.52;
#X obj 375 650 s sampleNameFreq;
#X obj 1322 203 r sampleNameFreq;
#X floatatom 1381 243 5 0 0 0 - - -;
#X msg 392 510 almglocken 2116.9;
#X obj 1322 224 unpack s f;
#X obj 351 176 r sampleNameFreq;
#X msg 1309 244 table \$1;
#X msg 1323 366 sr 22050;
#X text 1265 334 changed SR to 44100 20/06/2014;
#X msg 1308 313 sr 44100;
#X obj 1393 267 ftom;
#X floatatom 1399 316 5 0 0 0 - - -;
#X msg 392 597 xylo 2116.9;
#X obj 349 447 random 6;
#X obj 349 472 select 0 1 2 3 4 5 6;
#X obj 273 409 loadbang;
#X obj 287 432 delay 100;
#X connect 0 0 6 0;
#X connect 3 0 38 0;
#X connect 4 0 3 0;
#X connect 4 0 43 0;
#X connect 6 0 1 0;
#X connect 7 0 3 1;
#X connect 8 0 9 0;
#X connect 9 0 50 0;
#X connect 10 0 11 0;
#X connect 11 0 49 0;
#X connect 12 0 13 0;
#X connect 13 0 51 0;
#X connect 14 0 7 0;
#X connect 14 0 98 0;
#X connect 15 0 47 0;
#X connect 16 0 47 0;
#X connect 17 0 65 0;
#X connect 17 0 56 0;
#X connect 17 0 66 0;
#X connect 17 0 69 0;
#X connect 17 1 69 1;
#X connect 18 0 19 0;
#X connect 19 0 17 2;
#X connect 20 0 27 0;
#X connect 20 1 28 0;
#X connect 20 2 29 0;
#X connect 21 0 22 0;
#X connect 21 1 23 0;
#X connect 21 2 24 0;
#X connect 21 3 25 0;
#X connect 22 0 17 0;
#X connect 22 1 17 1;
#X connect 23 0 17 0;
#X connect 23 1 17 1;
#X connect 24 0 17 0;
#X connect 24 1 17 1;
#X connect 25 0 17 0;
#X connect 25 1 17 1;
#X connect 26 0 63 0;
#X connect 30 0 4 0;
#X connect 30 0 16 0;
#X connect 31 0 54 0;
#X connect 32 0 21 0;
#X connect 33 0 21 1;
#X connect 34 0 69 0;
#X connect 34 0 69 1;
#X connect 34 0 66 0;
#X connect 34 0 65 0;
#X connect 34 0 56 0;
#X connect 35 0 36 0;
#X connect 36 0 34 1;
#X connect 38 0 34 0;
#X connect 39 0 41 0;
#X connect 39 0 57 0;
#X connect 42 0 26 0;
#X connect 44 0 43 1;
#X connect 45 0 38 1;
#X connect 47 0 10 0;
#X connect 47 1 8 0;
#X connect 47 2 12 0;
#X connect 47 3 60 0;
#X connect 48 0 3 1;
#X connect 48 0 46 0;
#X connect 49 0 3 1;
#X connect 49 0 46 0;
#X connect 50 0 3 1;
#X connect 50 0 46 0;
#X connect 51 0 3 1;
#X connect 51 0 46 0;
#X connect 53 0 47 0;
#X connect 54 0 39 0;
#X connect 54 1 55 0;
#X connect 55 0 39 0;
#X connect 56 0 69 0;
#X connect 56 1 69 1;
#X connect 57 0 45 0;
#X connect 58 0 62 0;
#X connect 58 0 64 0;
#X connect 59 0 65 1;
#X connect 60 0 64 0;
#X connect 61 0 66 1;
#X connect 62 0 26 0;
#X connect 63 0 48 0;
#X connect 63 0 40 0;
#X connect 64 0 63 1;
#X connect 65 0 69 0;
#X connect 65 0 69 1;
#X connect 66 0 69 0;
#X connect 66 0 69 1;
#X connect 67 0 37 0;
#X connect 68 0 37 1;
#X connect 69 0 67 0;
#X connect 69 1 68 0;
#X connect 70 0 71 0;
#X connect 71 0 69 2;
#X connect 72 0 74 0;
#X connect 74 0 79 0;
#X connect 74 1 75 0;
#X connect 74 2 76 0;
#X connect 74 3 77 0;
#X connect 74 4 78 0;
#X connect 75 0 73 0;
#X connect 76 0 73 0;
#X connect 77 0 73 0;
#X connect 78 0 73 0;
#X connect 79 0 73 0;
#X connect 85 0 89 0;
#X connect 86 0 89 0;
#X connect 87 0 89 0;
#X connect 88 0 89 0;
#X connect 90 0 93 0;
#X connect 91 0 99 0;
#X connect 92 0 89 0;
#X connect 93 0 95 0;
#X connect 93 1 91 0;
#X connect 94 0 25 1;
#X connect 94 0 24 1;
#X connect 94 0 23 1;
#X connect 94 0 22 1;
#X connect 95 0 3 1;
#X connect 98 0 3 1;
#X connect 99 0 26 1;
#X connect 99 0 100 0;
#X connect 101 0 89 0;
#X connect 102 0 103 0;
#X connect 103 0 92 0;
#X connect 103 1 85 0;
#X connect 103 2 86 0;
#X connect 103 3 87 0;
#X connect 103 4 101 0;
#X connect 103 5 101 0;
#X connect 103 6 88 0;
#X connect 104 0 105 0;
#X connect 105 0 102 0;
