#N canvas 90 129 1151 808 10;
#X declare -path rj;
#X declare -path .;
#X declare -path rj;
#X declare -path samples;
#X declare -path .;
#X declare -path rj;
#X declare -path .;
#X declare -path rj;
#X declare -path .;
#X declare -path rj;
#X obj -150 14 declare -path rj;
#X obj 97 320 g_vol2;
#X obj 171 320 loadbang;
#X msg 171 346 95;
#X obj 211 14 notein;
#N canvas 1121 64 488 330 note_distribute 0;
#X obj 89 26 inlet;
#X obj 153 27 inlet;
#X obj 45 258 outlet;
#X obj 103 50 pack f f;
#X obj 103 85 stripnote;
#X obj 127 257 outlet;
#X obj 244 260 outlet;
#X obj 313 257 outlet;
#X obj 248 106 + 1;
#X floatatom 195 130 5 0 0 0 - - -;
#X msg 245 152 set \$1;
#X obj 245 129 % 4;
#X obj 195 102 t b;
#X obj 84 210 route 0 1 2 3;
#X obj 98 145 pack f f;
#X obj 123 180 list prepend;
#N canvas 326 601 450 300 sel01 0;
#X obj 122 3 inlet;
#X obj 247 31 sel 0;
#X msg 225 58 0;
#X msg 275 57 1;
#X obj 49 133 spigot;
#X obj 240 5 inlet;
#X obj 47 203 outlet;
#X obj 165 105 tgl 15 0 empty empty empty 17 7 0 10 -262144 -1 -1 1
1;
#X connect 0 0 4 0;
#X connect 1 0 2 0;
#X connect 1 1 3 0;
#X connect 2 0 7 0;
#X connect 3 0 7 0;
#X connect 4 0 6 0;
#X connect 5 0 1 0;
#X connect 7 0 4 1;
#X coords 0 -1 1 1 85 25 1 100 100;
#X restore 231 48 pd sel01;
#X obj 331 23 inlet;
#X obj 340 91 loadbang;
#X msg 335 121 1;
#X connect 0 0 3 0;
#X connect 1 0 3 1;
#X connect 3 0 16 0;
#X connect 4 0 14 0;
#X connect 4 1 12 0;
#X connect 4 1 14 1;
#X connect 8 0 11 0;
#X connect 9 0 8 0;
#X connect 9 0 15 1;
#X connect 10 0 9 0;
#X connect 11 0 10 0;
#X connect 12 0 9 0;
#X connect 13 0 2 0;
#X connect 13 1 5 0;
#X connect 13 2 6 0;
#X connect 13 3 7 0;
#X connect 14 0 15 0;
#X connect 15 0 13 0;
#X connect 16 0 4 0;
#X connect 17 0 16 1;
#X connect 18 0 19 0;
#X connect 19 0 16 1;
#X restore 28 230 pd note_distribute;
#X obj 206 266 bellsynth;
#X obj 177 42 s pitch;
#X obj 238 40 s velocity;
#X obj 323 42 s channel;
#X obj 28 204 r pitch;
#X obj 80 204 r velocity;
#X obj 499 393 g_vol;
#X obj 571 393 loadbang;
#X msg 571 416 90;
#X obj 513 775 dac~;
#N canvas 201 459 893 337 test 0;
#X obj 69 29 bng 150 250 50 0 empty empty empty 17 7 0 10 -258113 -1
-1;
#X obj 71 187 random 128;
#X floatatom 70 208 5 0 0 0 - - -;
#X obj 139 188 random 128;
#X obj 163 212 / 1.28;
#X floatatom 207 212 5 0 0 0 - - -;
#X obj 207 235 s singlevel;
#X obj 70 237 s pitch;
#X obj 138 235 s velocity;
#X obj 69 3 r testbutton;
#X obj 45 267 s singpitch;
#X obj 315 26 tgl 150 0 sing empty empty 17 7 0 10 -4034 -1 -1 0 1
;
#X obj 513 27 bng 150 250 50 0 resetsing empty empty 17 7 0 10 -4160
-1 -1;
#X obj 730 28 vsl 50 150 0 1 0 0 distortlevel empty empty 0 -9 0 10
-260097 -1 -1 0 1;
#X obj 435 224 hsl 200 30 -1 1 0 0 sinPanAngle empty wobble -2 -8 0
10 -262144 -1 -1 0 1;
#X msg 660 214 0.8;
#X obj 662 239 s panTranslation;
#X msg 697 214 1;
#X connect 0 0 1 0;
#X connect 0 0 3 0;
#X connect 1 0 2 0;
#X connect 2 0 7 0;
#X connect 2 0 10 0;
#X connect 3 0 4 0;
#X connect 3 0 8 0;
#X connect 4 0 5 0;
#X connect 5 0 6 0;
#X connect 9 0 0 0;
#X connect 15 0 16 0;
#X connect 17 0 16 0;
#X restore 121 14 pd test;
#N canvas 270 245 392 301 reverb 0;
#X obj 22 10 inlet~;
#X obj 18 263 outlet~;
#X obj 320 261 outlet~;
#X obj 100 95 loadbang;
#X obj 73 139 e_reverb \$0-reverbBus;
#X msg 100 116 amp 80 \, hall 85 \, freq 6000 \, damp 60 \, dry 0;
#X connect 0 0 4 0;
#X connect 3 0 5 0;
#X connect 4 0 1 0;
#X connect 4 1 2 0;
#X connect 5 0 4 1;
#X restore 466 576 pd reverb;
#X obj 418 546 r panTranslation;
#X obj 589 552 r distortlevel;
#N canvas 0 57 805 425 crystal 0;
#X obj 82 67 e_pitchshift;
#X msg 151 45 pitch 12;
#X obj 194 11 loadbang;
#X obj 30 16 inlet~;
#X obj 27 391 outlet~;
#X obj 546 25 inlet;
#X obj 520 121 line~;
#X obj 546 47 t b f;
#X msg 519 87 0 500;
#X obj 583 85 list append 50;
#X obj 533 67 delay 50;
#X obj 26 304 e_reslop mylop 4720;
#X msg 184 284 q 1;
#X obj 28 334 e_reverb crystal;
#X obj 29 253 *~ 0.5;
#X msg 160 319 amp 100 \, dry 0.5 \, hall 90 \, freq 14400 \, damp
60;
#X obj 75 175 e_fbdelay crystaldel 500;
#X obj 34 42 *~;
#X msg 216 152 dry 0.5 \, feedback 0.15 \, delay 200;
#X obj 26 361 *~ 0.8;
#X connect 0 0 16 0;
#X connect 1 0 0 1;
#X connect 2 0 1 0;
#X connect 2 0 12 0;
#X connect 2 0 15 0;
#X connect 2 0 18 0;
#X connect 3 0 17 0;
#X connect 5 0 7 0;
#X connect 6 0 17 1;
#X connect 7 0 10 0;
#X connect 7 1 9 0;
#X connect 8 0 6 0;
#X connect 9 0 6 0;
#X connect 10 0 8 0;
#X connect 11 0 13 0;
#X connect 12 0 11 1;
#X connect 13 0 19 0;
#X connect 14 0 11 0;
#X connect 15 0 13 1;
#X connect 16 0 11 0;
#X connect 17 0 0 0;
#X connect 17 0 14 0;
#X connect 18 0 16 2;
#X connect 19 0 4 0;
#X restore 393 572 pd crystal;
#N canvas 653 118 502 438 random_pitch 0;
#X obj 16 402 outlet~;
#X obj 19 11 inlet~;
#X obj 419 7 inlet;
#X obj 30 55 *~;
#X obj 374 57 line~;
#X obj 27 206 e_fbdelay rand_del 200;
#X msg 154 137 pitch 3;
#X obj 155 89 loadbang;
#X msg 154 179 dry 0.5 \, feedback 0.15 \, delay 200;
#X obj 253 117 * -1;
#X obj 253 141 + 4;
#X obj 320 135 list prepend pitch;
#X obj 245 57 random 80;
#X obj 247 83 / 10;
#X obj 32 111 e_pitchshift;
#X obj 242 232 random 200;
#X obj 244 268 list prepend delay;
#X obj 282 23 t b b;
#X obj 50 313 *~ 0.8;
#X obj 375 32 list append 1000;
#X connect 1 0 3 0;
#X connect 2 0 17 0;
#X connect 2 0 19 0;
#X connect 3 0 14 0;
#X connect 4 0 3 1;
#X connect 5 0 18 0;
#X connect 6 0 14 1;
#X connect 7 0 6 0;
#X connect 7 0 8 0;
#X connect 8 0 5 2;
#X connect 9 0 10 0;
#X connect 10 0 11 0;
#X connect 11 0 14 1;
#X connect 12 0 13 0;
#X connect 13 0 9 0;
#X connect 14 0 5 0;
#X connect 15 0 16 0;
#X connect 16 0 5 2;
#X connect 17 0 12 0;
#X connect 17 1 15 0;
#X connect 18 0 0 0;
#X connect 19 0 4 0;
#X restore 528 579 pd random_pitch;
#X obj 485 699 e_softclip left;
#X obj 515 699 e_softclip right;
#X obj 485 613 g_vol2;
#X obj 567 613 loadbang;
#X msg 567 639 98;
#X msg -90 446 crotale 1058.39;
#X msg -77 472 gong 179.88;
#X msg -63 498 marimba 264;
#X msg -27 551 bowl 705.52;
#X obj -111 592 s sampleNameFreq;
#X obj 157 226 r sampleNameFreq;
#X msg -45 524 xylo 2116.9;
#X obj -150 334 random 6;
#X obj -32 14 declare -path samples;
#X msg -105 419 almglocken 525.57;
#N canvas 321 232 1133 683 soundfiles 0;
#X obj 570 443 loadbang;
#X obj 570 494 soundfiler;
#X obj 388 56 table bowl;
#X obj 157 55 table crotale;
#X obj 319 56 table gong;
#X obj 460 57 table marimba;
#X obj 246 55 table xylo;
#X obj 438 148 loadbang;
#X obj 438 190 soundfiler;
#X obj 550 58 table almglocken;
#X obj 261 329 s samplesread;
#X obj 566 252 soundfiler;
#X obj 729 353 soundfiler;
#X obj 648 304 soundfiler;
#X obj 653 428 soundfiler;
#X obj 566 206 loadbang;
#X obj 648 259 loadbang;
#X obj 729 309 loadbang;
#X obj 653 377 loadbang;
#X msg 566 227 read -resize gong.wav gong;
#X msg 438 170 read -resize almglockenC.wav almglocken;
#X msg 648 281 read -resize crotale.wav crotale;
#X msg 730 331 read -resize marimba.wav marimba;
#X msg 653 404 read -resize xylo.wav xylo;
#X msg 570 468 read -resize bowl.wav bowl;
#X connect 0 0 24 0;
#X connect 1 0 10 0;
#X connect 7 0 20 0;
#X connect 8 0 10 0;
#X connect 11 0 10 0;
#X connect 12 0 10 0;
#X connect 13 0 10 0;
#X connect 14 0 10 0;
#X connect 15 0 19 0;
#X connect 16 0 21 0;
#X connect 17 0 22 0;
#X connect 18 0 23 0;
#X connect 19 0 11 0;
#X connect 20 0 8 0;
#X connect 21 0 13 0;
#X connect 22 0 12 0;
#X connect 23 0 14 0;
#X connect 24 0 1 0;
#X restore -32 40 pd soundfiles;
#X obj -148 382 select 0 1 2 3 4 5;
#X obj -140 63 r samplesread;
#X obj -143 92 print;
#N canvas 60 45 900 882 scrape 0;
#X obj -22 784 *~;
#X obj 14 684 / 100;
#X obj -7 753 line~;
#X obj 15 651 moses 200;
#X msg 88 651 200;
#X obj -7 721 list append 50;
#X obj -24 833 outlet~;
#X obj -555 23 inlet;
#X text -507 23 pitch;
#X obj -419 24 inlet;
#X text -373 23 level;
#X obj -87 20 inlet;
#X text -52 20 sample;
#X obj -314 23 inlet;
#X text -270 24 sing "on";
#X obj -219 609 s_loopsmooth almglocken;
#X obj -314 71 tgl 15 0 empty empty empty 17 7 0 10 -262144 -1 -1 0
1;
#X obj -12 217 random 30;
#X obj -13 243 + 25;
#X obj -129 221 random 40;
#X obj -130 246 + 10;
#X obj 155 224 random 100;
#X obj 155 247 + 1;
#X obj 46 98 loadbang;
#X obj -152 124 select 0;
#X floatatom -382 351 5 0 0 0 - - -;
#X obj -128 156 t b b b b;
#X obj -325 268 list prepend transposition;
#X obj -131 269 list prepend dur;
#X obj -13 268 list prepend loopstart;
#X obj 156 270 list prepend chunk-size;
#X msg -178 182 0;
#X obj -366 175 t b;
#X obj -324 242 + 0;
#X obj -294 204 * 0.25;
#X floatatom -451 165 5 0 0 0 - - -;
#X obj -508 141 unpack s f;
#X msg -536 254 table \$1;
#X msg 70 505 sr 44100;
#X obj -451 190 ftom;
#X floatatom -451 219 5 0 0 0 - - -;
#X obj -380 204 - 72.07;
#X obj 70 480 loadbang;
#X obj -314 48 t a a;
#X obj -191 23 inlet;
#X text -151 21 bend;
#X obj 16 22 inlet;
#X text 69 21 reset;
#X obj 76 831 outlet;
#X text 124 833 volume;
#X connect 0 0 6 0;
#X connect 1 0 5 0;
#X connect 1 0 48 0;
#X connect 2 0 0 1;
#X connect 3 0 1 0;
#X connect 3 1 4 0;
#X connect 4 0 1 0;
#X connect 5 0 2 0;
#X connect 7 0 41 0;
#X connect 9 0 3 0;
#X connect 11 0 36 0;
#X connect 13 0 43 0;
#X connect 15 0 0 0;
#X connect 16 0 15 0;
#X connect 17 0 18 0;
#X connect 18 0 29 0;
#X connect 19 0 20 0;
#X connect 20 0 28 0;
#X connect 21 0 22 0;
#X connect 22 0 30 0;
#X connect 23 0 26 0;
#X connect 24 0 26 0;
#X connect 26 0 19 0;
#X connect 26 1 17 0;
#X connect 26 2 21 0;
#X connect 26 3 31 0;
#X connect 27 0 15 1;
#X connect 28 0 15 1;
#X connect 29 0 15 1;
#X connect 30 0 15 1;
#X connect 31 0 34 0;
#X connect 32 0 41 0;
#X connect 33 0 27 0;
#X connect 33 0 25 0;
#X connect 34 0 33 1;
#X connect 35 0 39 0;
#X connect 36 0 37 0;
#X connect 36 1 35 0;
#X connect 37 0 15 1;
#X connect 38 0 15 1;
#X connect 39 0 40 0;
#X connect 39 0 41 1;
#X connect 41 0 33 0;
#X connect 42 0 38 0;
#X connect 43 0 16 0;
#X connect 43 1 24 0;
#X connect 44 0 32 0;
#X connect 44 0 34 0;
#X connect 46 0 26 0;
#X restore 489 303 pd scrape;
#X obj 498 148 r singlevel;
#X obj 480 123 r singpitch;
#X obj 515 171 r sing;
#X obj 543 222 r sampleNameFreq;
#N canvas 485 147 762 849 oscsinger 0;
#X obj 18 135 osc~;
#X obj 16 3 mtof;
#X obj 312 326 *~;
#X obj 172 725 outlet~;
#X obj 172 700 hip~ 5;
#X obj 234 89 / 100;
#X obj 213 158 line~;
#X obj 235 56 moses 200;
#X msg 308 56 200;
#X obj 213 126 list append 50;
#X obj 15 -25 inlet;
#X text 63 -25 pitch;
#X obj 151 -24 inlet;
#X text 197 -25 level;
#X obj 483 -28 inlet;
#X text 518 -28 sample;
#X obj 256 -25 inlet;
#X text 300 -24 sing "on";
#X obj 379 -25 inlet;
#X text 419 -27 bend;
#X obj 586 -26 inlet;
#X text 639 -27 reset;
#X obj 346 412 *~;
#X obj 432 335 line~;
#X obj 431 307 list append 50;
#X connect 0 0 2 0;
#X connect 1 0 0 0;
#X connect 2 0 22 0;
#X connect 4 0 3 0;
#X connect 5 0 9 0;
#X connect 6 0 2 1;
#X connect 7 0 5 0;
#X connect 7 1 8 0;
#X connect 8 0 5 0;
#X connect 9 0 6 0;
#X connect 10 0 1 0;
#X connect 12 0 7 0;
#X connect 16 0 24 0;
#X connect 22 0 4 0;
#X connect 23 0 22 1;
#X connect 24 0 23 0;
#X restore 723 310 pd oscsinger;
#X obj 528 197 r sinPanAngle;
#X obj 555 251 r resetsing;
#X obj 599 92 loadbang;
#X msg 598 120 almglocken 525.57;
#X floatatom 571 302 5 0 0 0 - - -;
#X obj 824 133 r singlevel;
#X obj 806 108 r singpitch;
#X obj 841 156 r sing;
#X obj 869 207 r sampleNameFreq;
#X obj 854 182 r sinPanAngle;
#X obj 881 236 r resetsing;
#X floatatom -98 93 5 0 0 0 - - singvolume;
#X obj -5 269 bellsynth;
#X obj 68 267 bellsynth;
#X obj 137 267 bellsynth;
#X obj -152 308 loadbang;
#X obj -84 335 r changesound;
#X connect 1 0 20 0;
#X connect 1 0 17 0;
#X connect 1 0 21 0;
#X connect 1 0 24 0;
#X connect 1 1 24 1;
#X connect 2 0 3 0;
#X connect 3 0 1 2;
#X connect 4 0 7 0;
#X connect 4 1 8 0;
#X connect 4 2 9 0;
#X connect 5 0 59 0;
#X connect 5 1 60 0;
#X connect 5 2 61 0;
#X connect 5 3 6 0;
#X connect 6 0 1 0;
#X connect 6 1 1 1;
#X connect 10 0 5 0;
#X connect 11 0 5 1;
#X connect 12 0 24 0;
#X connect 12 0 24 1;
#X connect 12 0 21 0;
#X connect 12 0 20 0;
#X connect 12 0 17 0;
#X connect 13 0 14 0;
#X connect 14 0 12 1;
#X connect 17 0 24 0;
#X connect 17 1 24 1;
#X connect 18 0 20 1;
#X connect 19 0 21 1;
#X connect 20 0 24 0;
#X connect 20 0 24 1;
#X connect 21 0 24 0;
#X connect 21 0 24 1;
#X connect 22 0 15 0;
#X connect 23 0 15 1;
#X connect 24 0 22 0;
#X connect 24 1 23 0;
#X connect 25 0 26 0;
#X connect 26 0 24 2;
#X connect 27 0 31 0;
#X connect 28 0 31 0;
#X connect 29 0 31 0;
#X connect 30 0 31 0;
#X connect 32 0 6 1;
#X connect 32 0 59 1;
#X connect 32 0 60 1;
#X connect 32 0 61 1;
#X connect 33 0 31 0;
#X connect 34 0 38 0;
#X connect 36 0 31 0;
#X connect 38 0 36 0;
#X connect 38 1 27 0;
#X connect 38 2 28 0;
#X connect 38 3 29 0;
#X connect 38 4 33 0;
#X connect 38 5 30 0;
#X connect 38 6 36 0;
#X connect 39 0 40 0;
#X connect 39 0 58 0;
#X connect 41 0 12 0;
#X connect 41 1 51 0;
#X connect 42 0 41 1;
#X connect 43 0 41 0;
#X connect 44 0 41 2;
#X connect 45 0 41 4;
#X connect 47 0 41 3;
#X connect 48 0 41 5;
#X connect 49 0 50 0;
#X connect 50 0 41 4;
#X connect 52 0 46 1;
#X connect 53 0 46 0;
#X connect 54 0 46 2;
#X connect 55 0 46 4;
#X connect 56 0 46 3;
#X connect 57 0 46 5;
#X connect 59 0 1 0;
#X connect 59 1 1 1;
#X connect 60 0 1 0;
#X connect 60 1 1 1;
#X connect 61 0 1 0;
#X connect 61 1 1 1;
#X connect 62 0 34 0;
#X connect 63 0 38 0;
