#N canvas 104 133 1410 545 10;
#X declare -path rj;
#X declare -path .;
#X declare -path rj;
#X declare -path .;
#X declare -path rj;
#X declare -path .;
#X declare -path rj;
#X declare -path .;
#X declare -path rj;
#X obj 168 65 loadbang;
#X obj 168 107 soundfiler;
#X obj 168 21 declare -path rj;
#X obj 1128 238 s_loopsmooth almglocken;
#X obj 828 55 tgl 15 0 empty empty empty 17 7 0 10 -262144 -1 -1 0
1;
#X obj 168 42 table almglocken;
#X msg 168 86 read -resize ./almglockenC.wav almglocken;
#X msg 1282 245 table almglocken;
#X obj 1171 133 random 30;
#X obj 1171 153 + 25;
#X obj 1171 174 prepend loopstart;
#X obj 1093 176 prepend dur;
#X obj 1093 134 random 40;
#X obj 1093 155 + 10;
#X obj 1281 132 random 100;
#X obj 1281 153 + 1;
#X obj 1281 173 prepend chunk-size;
#X obj 1282 225 loadbang;
#X obj 1223 36 loadbang;
#X obj 1164 36 select 0;
#X obj 215 382 g_vol2;
#X obj 289 388 loadbang;
#X msg 289 410 95;
#X obj 672 27 notein;
#N canvas 1121 64 488 330 note_distribute 0;
#X obj 89 26 inlet;
#X obj 153 27 inlet;
#X obj 45 258 outlet;
#X obj 103 50 pack f f;
#X obj 103 85 stripnote;
#X obj 127 257 outlet;
#X obj 244 260 outlet;
#X obj 313 257 outlet;
#X obj 248 106 + 1;
#X floatatom 195 130 5 0 0 0 - - -;
#X msg 245 152 set \$1;
#X obj 245 129 % 4;
#X obj 195 102 t b;
#X obj 84 210 route 0 1 2 3;
#X obj 98 145 pack f f;
#X obj 123 180 list prepend;
#N canvas 326 601 450 300 sel01 0;
#X obj 122 3 inlet;
#X obj 247 31 sel 0;
#X msg 225 58 0;
#X msg 275 57 1;
#X obj 49 133 spigot;
#X obj 240 5 inlet;
#X obj 47 203 outlet;
#X obj 165 105 tgl 15 0 empty empty empty 17 7 0 10 -262144 -1 -1 1
1;
#X connect 0 0 4 0;
#X connect 1 0 2 0;
#X connect 1 1 3 0;
#X connect 2 0 7 0;
#X connect 3 0 7 0;
#X connect 4 0 6 0;
#X connect 5 0 1 0;
#X connect 7 0 4 1;
#X coords 0 -1 1 1 85 25 1 100 100;
#X restore 231 48 pd sel01;
#X obj 331 23 inlet;
#X obj 340 91 loadbang;
#X msg 335 121 1;
#X connect 0 0 3 0;
#X connect 1 0 3 1;
#X connect 3 0 16 0;
#X connect 4 0 14 0;
#X connect 4 1 12 0;
#X connect 4 1 14 1;
#X connect 8 0 11 0;
#X connect 9 0 8 0;
#X connect 9 0 15 1;
#X connect 10 0 9 0;
#X connect 11 0 10 0;
#X connect 12 0 9 0;
#X connect 13 0 2 0;
#X connect 13 1 5 0;
#X connect 13 2 6 0;
#X connect 13 3 7 0;
#X connect 14 0 15 0;
#X connect 15 0 13 0;
#X connect 16 0 4 0;
#X connect 17 0 16 1;
#X connect 18 0 19 0;
#X connect 19 0 16 1;
#X restore 225 176 pd note_distribute;
#X obj 157 226 bellsynth;
#X obj 218 226 bellsynth;
#X obj 280 225 bellsynth;
#X obj 344 225 bellsynth;
#X msg 1282 267 sr 22050;
#X obj 954 177 prepend transposition;
#X obj 954 155 - 48;
#X obj 638 55 s pitch;
#X obj 688 55 s velocity;
#X obj 757 54 s channel;
#X obj 828 33 r sing;
#X obj 1187 268 r singlevel;
#X obj 208 150 r pitch;
#X obj 260 150 r velocity;
#X obj 537 252 bng 15 250 50 0 empty empty empty 17 7 0 10 -262144
-1 -1;
#X obj 1127 376 g_vol;
#X obj 1199 376 loadbang;
#X msg 1200 403 90;
#X obj 489 281 random 128;
#X floatatom 488 302 5 0 0 0 - - -;
#X obj 557 282 random 128;
#X obj 581 306 / 1.28;
#X floatatom 625 306 5 0 0 0 - - -;
#X obj 625 329 s singlevel;
#X obj 629 405 loadbang;
#X obj 605 453 e_reverb \$0-reverbBus;
#X msg 629 426 amp 80 \, hall 85 \, freq 6000 \, damp 60 \, dry 0;
#X obj 488 331 s pitch;
#X obj 556 329 s velocity;
#X obj 658 499 dac~;
#X obj 1201 292 moses 100;
#X msg 1252 320 100;
#X obj 1050 361 *~;
#X obj 1201 316 / 100;
#X obj 537 216 r testbutton;
#X obj 1188 73 t b b b;
#X obj 1300 44 bng 15 250 50 0 empty empty empty 17 7 0 10 -262144
-1 -1;
#X floatatom 912 179 5 0 0 0 - - -;
#X floatatom 1187 343 5 0 0 0 - - -;
#X obj 954 133 r singpitch;
#N canvas 659 601 450 300 oscsinger 0;
#X obj 34 30 inlet;
#X obj 179 26 inlet;
#X obj 95 127 osc~;
#X obj 160 64 mtof;
#X obj 96 199 *~;
#X obj 178 143 loadbang;
#X msg 180 174 0;
#X obj 96 247 outlet~;
#X obj 96 222 hip~ 5;
#X msg 186 228 1;
#X obj 271 152 list append 100;
#X obj 271 181 line~;
#X connect 0 0 4 1;
#X connect 0 0 10 0;
#X connect 1 0 3 0;
#X connect 2 0 4 0;
#X connect 3 0 2 0;
#X connect 4 0 8 0;
#X connect 5 0 6 0;
#X connect 6 0 4 1;
#X connect 8 0 7 0;
#X connect 9 0 4 1;
#X connect 10 0 11 0;
#X connect 11 0 4 1;
#X restore 763 238 pd oscsinger;
#X obj 463 361 s singpitch;
#X obj 807 214 r singpitch;
#X obj 1063 315 list append 10;
#X obj 1064 336 line~;
#X connect 0 0 6 0;
#X connect 4 0 3 0;
#X connect 4 0 65 0;
#X connect 6 0 1 0;
#X connect 7 0 3 1;
#X connect 8 0 9 0;
#X connect 9 0 10 0;
#X connect 10 0 3 1;
#X connect 11 0 3 1;
#X connect 12 0 13 0;
#X connect 13 0 11 0;
#X connect 14 0 15 0;
#X connect 15 0 16 0;
#X connect 16 0 3 1;
#X connect 17 0 7 0;
#X connect 17 0 29 0;
#X connect 18 0 60 0;
#X connect 19 0 60 0;
#X connect 20 0 54 0;
#X connect 20 1 50 0;
#X connect 20 1 54 1;
#X connect 21 0 22 0;
#X connect 22 0 20 2;
#X connect 23 0 32 0;
#X connect 23 1 33 0;
#X connect 23 2 34 0;
#X connect 24 0 25 0;
#X connect 24 1 26 0;
#X connect 24 2 27 0;
#X connect 24 3 28 0;
#X connect 25 0 20 0;
#X connect 25 1 20 1;
#X connect 26 0 20 0;
#X connect 26 1 20 1;
#X connect 27 0 20 0;
#X connect 27 1 20 1;
#X connect 28 0 20 0;
#X connect 28 1 20 1;
#X connect 29 0 3 1;
#X connect 30 0 3 1;
#X connect 31 0 30 0;
#X connect 31 0 62 0;
#X connect 35 0 4 0;
#X connect 35 0 19 0;
#X connect 36 0 55 0;
#X connect 37 0 24 0;
#X connect 38 0 24 1;
#X connect 39 0 43 0;
#X connect 39 0 45 0;
#X connect 40 0 50 0;
#X connect 40 0 54 0;
#X connect 40 0 54 1;
#X connect 41 0 42 0;
#X connect 42 0 40 1;
#X connect 43 0 44 0;
#X connect 44 0 52 0;
#X connect 44 0 66 0;
#X connect 45 0 46 0;
#X connect 45 0 53 0;
#X connect 46 0 47 0;
#X connect 47 0 48 0;
#X connect 49 0 51 0;
#X connect 50 0 54 0;
#X connect 50 1 54 1;
#X connect 51 0 50 1;
#X connect 55 0 58 0;
#X connect 55 1 56 0;
#X connect 56 0 58 0;
#X connect 57 0 40 0;
#X connect 58 0 63 0;
#X connect 58 0 68 0;
#X connect 59 0 39 0;
#X connect 60 0 12 0;
#X connect 60 1 8 0;
#X connect 60 2 14 0;
#X connect 61 0 60 0;
#X connect 64 0 31 0;
#X connect 65 0 57 0;
#X connect 67 0 65 1;
#X connect 68 0 69 0;
#X connect 69 0 57 1;
